<?xml version="1.0" encoding="utf-8"?>
<!-- Generator: Adobe Illustrator 18.1.0, SVG Export Plug-In . SVG Version: 6.00 Build 0)  -->
<svg version="1.1" id="Layer_1" xmlns="http://www.w3.org/2000/svg" xmlns:xlink="http://www.w3.org/1999/xlink" x="0px" y="0px"
	 viewBox="0 0 1024 1024" enable-background="new 0 0 1024 1024" xml:space="preserve">
<g>
	<path fill="#2F96E0" stroke="#2F96E0" stroke-width="9" stroke-miterlimit="10" d="M607.3,650.2h-481C86.4,650.2,54,617.8,54,578
		V17.9l131.8,131.8h421.4c39.8,0,72.3,32.4,72.3,72.3v356C679.5,617.8,647.1,650.2,607.3,650.2z M98.6,125.6V578
		c0,15.2,12.4,27.7,27.7,27.7h481c15.2,0,27.7-12.4,27.7-27.7V222c0-15.2-12.4-27.7-27.7-27.7H167.4L98.6,125.6z"/>
	<path fill="#38B78A" stroke="#38B78A" stroke-width="9" stroke-miterlimit="10" d="M970,1006.1L838.1,874.3H416.7
		c-39.8,0-72.3-32.4-72.3-72.3V446c0-39.8,32.4-72.3,72.3-72.3h481c39.8,0,72.3,32.4,72.3,72.3V1006.1z M416.7,418.4
		c-15.2,0-27.7,12.4-27.7,27.7v356c0,15.2,12.4,27.7,27.7,27.7h439.9l68.8,68.8V446c0-15.2-12.4-27.7-27.7-27.7H416.7z"/>
</g>
</svg>
